<?xml version="1.0" standalone="no"?>
<!DOCTYPE svg PUBLIC "-//W3C//DTD SVG 20010904//EN"
 "http://www.w3.org/TR/2001/REC-SVG-20010904/DTD/svg10.dtd">
<svg version="1.0" xmlns="http://www.w3.org/2000/svg"
 width="700.000000pt" height="700.000000pt" viewBox="0 0 700.000000 700.000000"
 preserveAspectRatio="xMidYMid meet">
<metadata>
Created by potrace 1.14, written by Peter Selinger 2001-2017
</metadata>
<g transform="translate(0.000000,700.000000) scale(0.100000,-0.100000)"
fill="#000000" stroke="none">
<path d="M1889 6996 c-2 -2 -33 -6 -69 -10 -56 -5 -110 -13 -195 -30 -175 -35
-408 -122 -574 -216 -185 -105 -315 -204 -469 -358 -85 -86 -232 -270 -232
-291 0 -5 -4 -11 -8 -13 -13 -5 -94 -142 -134 -228 -86 -179 -144 -361 -180
-560 l-23 -125 0 -1655 c0 -1531 1 -1663 18 -1766 88 -557 372 -1021 837
-1365 19 -14 80 -53 135 -85 227 -135 409 -204 685 -261 150 -30 252 -32 1870
-29 894 1 1641 6 1660 9 19 4 62 12 95 18 257 45 531 151 742 286 382 243 671
602 823 1018 50 139 42 109 75 255 54 235 54 200 53 1925 0 1287 -3 1617 -13
1685 -8 47 -16 103 -20 125 -21 135 -95 364 -167 510 -79 163 -134 251 -248
399 -65 84 -205 224 -307 308 -246 200 -517 330 -868 415 -11 2 -78 13 -150
23 -122 17 -230 19 -1731 19 -881 0 -1603 -1 -1605 -3z"/>
</g>
</svg>
